<?xml version="1.0" encoding="utf-8"?>
<!-- Generator: Adobe Illustrator 17.0.0, SVG Export Plug-In . SVG Version: 6.00 Build 0)  -->
<!DOCTYPE svg PUBLIC "-//W3C//DTD SVG 1.0//EN" "http://www.w3.org/TR/2001/REC-SVG-20010904/DTD/svg10.dtd">
<svg version="1.0" id="Layer_1" xmlns="http://www.w3.org/2000/svg" xmlns:xlink="http://www.w3.org/1999/xlink" x="0px" y="0px"
	 width="96px" height="96px" viewBox="0 0 96 96" enable-background="new 0 0 96 96" xml:space="preserve">
<g>
	<g>
		<path fill="#FD5C3F" d="M48.175,14.164c0.996,0.171,2.005,0.263,2.995,0.48c4.128,0.904,7.762,2.767,10.894,5.6
			c3.636,3.29,6.026,7.325,7.173,12.092c0.151,0.626,0.234,1.268,0.37,1.898c0.073,0.336-0.081,0.446-0.373,0.483
			c-0.7,0.089-1.401,0.177-2.099,0.278c-0.346,0.05-0.5-0.074-0.55-0.428c-0.251-1.775-0.787-3.469-1.477-5.12
			c-0.159-0.382-0.374-0.528-0.794-0.524c-2.15,0.02-4.301,0.008-6.452,0.011c-0.552,0.001-0.594,0.052-0.493,0.583
			c0.279,1.464,0.43,2.945,0.58,4.426c0.077,0.765-0.012,0.849-0.765,0.88c-0.521,0.022-1.041,0.065-1.562,0.087
			c-0.623,0.026-0.662,0.004-0.706-0.61c-0.107-1.502-0.315-2.991-0.574-4.473c-0.011-0.06-0.014-0.122-0.025-0.183
			c-0.125-0.708-0.126-0.712-0.847-0.712c-1.72-0.001-3.441,0.01-5.161-0.004c-0.378-0.003-0.513,0.117-0.51,0.502
			c0.014,1.582,0.003,3.164,0,4.747c-0.001,0.644-0.01,0.652-0.633,0.654c-0.614,0.001-1.23-0.022-1.843,0.008
			c-0.441,0.021-0.59-0.135-0.584-0.579c0.022-1.582-0.002-3.165,0.019-4.746c0.006-0.431-0.112-0.595-0.567-0.589
			c-1.797,0.022-3.595,0.014-5.392,0.005c-0.301-0.001-0.49,0.063-0.553,0.398c-0.391,2.085-0.665,4.183-0.747,6.303
			c-0.024,0.633-0.007,0.635,0.636,0.635c1.552,0,3.103,0.011,4.654-0.011c0.436-0.006,0.611,0.128,0.591,0.576
			c-0.027,0.598-0.005,1.198-0.007,1.797c-0.003,0.613-0.016,0.626-0.613,0.627c-1.582,0.002-3.165,0.014-4.747-0.004
			c-0.406-0.005-0.54,0.122-0.52,0.529c0.103,2.103,0.336,4.19,0.723,6.26c0.081,0.433,0.272,0.57,0.71,0.56
			c1.305-0.029,2.611,0.001,3.917-0.017c0.398-0.006,0.552,0.126,0.537,0.53c-0.023,0.644-0.021,1.291-0.002,1.935
			c0.011,0.392-0.124,0.546-0.533,0.538c-1.09-0.021-2.181-0.001-3.272-0.011c-0.334-0.003-0.451,0.099-0.336,0.436
			c0.844,2.473,1.866,4.845,3.742,6.745c0.271,0.274,0.557,0.529,0.882,0.737c0.18,0.116,0.277,0.271,0.119,0.456
			c-0.681,0.798-0.633,1.8-0.762,2.746c-0.05,0.368-0.184,0.461-0.536,0.407c-2.171-0.329-4.253-0.953-6.247-1.868
			c-3.662-1.682-6.704-4.149-9.11-7.37c-2.494-3.339-4.017-7.089-4.524-11.239c-0.507-4.146,0.045-8.148,1.661-11.996
			c1.105-2.631,2.639-4.986,4.61-7.058c3.966-4.169,8.809-6.584,14.507-7.31c0.241-0.031,0.495,0.02,0.724-0.1
			C45.594,14.164,46.884,14.164,48.175,14.164z M30.042,36.263c0,0.001,0,0.001,0,0.002c1.304,0,2.608-0.009,3.912,0.006
			c0.356,0.004,0.483-0.117,0.492-0.476c0.015-0.627,0.078-1.253,0.124-1.88c0.113-1.53,0.316-3.048,0.59-4.557
			c0.058-0.316-0.027-0.434-0.368-0.432c-2.255,0.013-4.51,0.014-6.765,0.004c-0.317-0.001-0.453,0.136-0.576,0.406
			c-0.94,2.074-1.482,4.249-1.725,6.507c-0.037,0.347,0.095,0.426,0.405,0.424C27.434,36.258,28.738,36.263,30.042,36.263z
			 M30.065,39.257c-1.304,0-2.608,0.003-3.912-0.002c-0.282-0.001-0.472,0.031-0.43,0.403c0.25,2.241,0.786,4.403,1.706,6.468
			c0.153,0.343,0.344,0.477,0.728,0.474c2.194-0.018,4.388-0.017,6.582-0.001c0.394,0.003,0.509-0.097,0.43-0.497
			c-0.409-2.064-0.612-4.155-0.71-6.253c-0.024-0.509-0.215-0.608-0.665-0.599C32.551,39.272,31.308,39.256,30.065,39.257z
			 M39.38,18.373c-3.281,0.843-9.064,5.28-9.865,7.524c0.142,0.082,0.299,0.044,0.448,0.044c1.812,0.003,3.625-0.009,5.437,0.011
			c0.404,0.004,0.592-0.111,0.711-0.514c0.629-2.128,1.455-4.175,2.633-6.066C38.937,19.061,39.137,18.754,39.38,18.373z
			 M53.21,18.419c0.077,0.157,0.102,0.229,0.143,0.29c1.409,2.113,2.367,4.43,3.082,6.854c0.096,0.326,0.284,0.381,0.575,0.38
			c1.871-0.006,3.743-0.002,5.614-0.004c0.118,0,0.277,0.056,0.343-0.059c0.087-0.151-0.082-0.244-0.159-0.347
			c-2.079-2.801-4.701-4.944-7.85-6.437C54.425,18.843,53.891,18.573,53.21,18.419z M39.27,57.126
			c-0.053-0.152-0.061-0.214-0.092-0.261c-1.421-2.143-2.39-4.489-3.108-6.946c-0.091-0.312-0.29-0.342-0.557-0.341
			c-1.841,0.005-3.683,0.001-5.524,0.006c-0.144,0-0.346-0.074-0.419,0.091c-0.069,0.154,0.099,0.275,0.188,0.393
			c1.377,1.829,2.998,3.404,4.891,4.696C36.061,55.726,37.564,56.509,39.27,57.126z M44.746,21.768c0-1.259,0.003-2.517-0.002-3.776
			c-0.002-0.478-0.039-0.495-0.454-0.242c-0.838,0.51-1.517,1.194-2.109,1.967c-1.341,1.752-2.216,3.741-2.933,5.811
			c-0.128,0.371,0.038,0.419,0.344,0.417c1.566-0.006,3.131-0.013,4.697,0.003c0.379,0.004,0.466-0.154,0.462-0.496
			C44.739,24.224,44.747,22.996,44.746,21.768z M47.799,21.723c0,1.227,0.008,2.454-0.005,3.68c-0.004,0.378,0.1,0.553,0.52,0.548
			c1.533-0.02,3.067-0.021,4.6-0.001c0.429,0.005,0.44-0.146,0.328-0.488c-0.48-1.461-1.065-2.878-1.827-4.212
			c-0.796-1.396-1.738-2.677-3.162-3.516c-0.114-0.067-0.233-0.2-0.372-0.118c-0.138,0.081-0.081,0.25-0.081,0.382
			C47.797,19.239,47.799,20.481,47.799,21.723z"/>
		<path fill="#FD5C3F" d="M57.841,37.739c6.414-0.035,11.749,5.244,11.838,11.606c0.093,6.618-5.28,11.928-11.593,12.048
			c-6.343,0.121-12.008-4.864-12.087-11.687C45.919,42.755,51.607,37.666,57.841,37.739z M66.613,49.537
			c0.095-4.723-3.839-8.858-8.867-8.787c-5.052,0.071-8.752,4.118-8.723,8.923c0.029,4.822,4.093,8.797,8.947,8.709
			C63.046,58.289,66.773,53.976,66.613,49.537z"/>
		<path fill="#FD5C3F" d="M55.244,44.884c0.086,0.075,0.193,0.16,0.29,0.256c0.631,0.628,1.283,1.238,1.881,1.896
			c0.329,0.362,0.523,0.313,0.829-0.017c0.605-0.653,1.262-1.257,1.877-1.9c0.261-0.272,0.451-0.286,0.714-0.005
			c0.461,0.493,0.942,0.969,1.434,1.431c0.271,0.254,0.292,0.437,0.007,0.707c-0.69,0.655-1.344,1.348-2.029,2.009
			c-0.231,0.223-0.234,0.372-0.001,0.597c0.686,0.66,1.341,1.351,2.03,2.008c0.281,0.268,0.268,0.45-0.008,0.707
			c-0.505,0.471-0.991,0.964-1.467,1.464c-0.235,0.247-0.415,0.239-0.648,0c-0.653-0.671-1.338-1.312-1.974-1.998
			c-0.289-0.312-0.455-0.275-0.726,0.012c-0.631,0.67-1.305,1.301-1.943,1.964c-0.234,0.243-0.401,0.259-0.64,0.008
			c-0.507-0.534-1.031-1.054-1.561-1.565c-0.205-0.197-0.192-0.337,0.005-0.53c0.692-0.676,1.363-1.373,2.059-2.044
			c0.247-0.238,0.243-0.407,0.002-0.642c-0.683-0.663-1.342-1.35-2.025-2.013c-0.223-0.216-0.255-0.369-0.013-0.597
			c0.535-0.507,1.046-1.038,1.568-1.558C54.99,44.988,55.072,44.892,55.244,44.884z"/>
	</g>
</g>
<g>
	<path fill="#FD5C3F" d="M7.602,65.322c0.936,0,1.679,0.456,2.147,0.972L9.185,66.93c-0.42-0.444-0.924-0.731-1.571-0.731
		c-1.499,0-2.495,1.223-2.495,3.178c0,1.979,0.947,3.227,2.447,3.227c0.744,0,1.295-0.312,1.799-0.876l0.563,0.612
		c-0.611,0.72-1.391,1.139-2.386,1.139c-1.979,0-3.454-1.511-3.454-4.077C4.088,66.869,5.587,65.322,7.602,65.322z"/>
	<path fill="#FD5C3F" d="M13.542,67.361c1.427,0,2.699,1.115,2.699,3.07c0,1.931-1.271,3.046-2.699,3.046s-2.698-1.115-2.698-3.046
		C10.844,68.477,12.115,67.361,13.542,67.361z M13.542,72.662c1.008,0,1.679-0.899,1.679-2.23c0-1.344-0.671-2.255-1.679-2.255
		c-0.995,0-1.679,0.911-1.679,2.255C11.863,71.763,12.547,72.662,13.542,72.662z"/>
	<path fill="#FD5C3F" d="M17.779,67.505h0.815l0.084,0.84h0.036c0.552-0.552,1.151-0.983,1.955-0.983
		c1.223,0,1.775,0.791,1.775,2.278v3.694h-0.983v-3.563c0-1.091-0.336-1.559-1.104-1.559c-0.6,0-1.007,0.312-1.595,0.899v4.222
		h-0.983V67.505z"/>
	<path fill="#FD5C3F" d="M24.343,67.505h0.815l0.084,0.84h0.036c0.552-0.552,1.151-0.983,1.955-0.983
		c1.223,0,1.775,0.791,1.775,2.278v3.694h-0.983v-3.563c0-1.091-0.336-1.559-1.104-1.559c-0.6,0-1.007,0.312-1.595,0.899v4.222
		h-0.983V67.505z"/>
	<path fill="#FD5C3F" d="M33.09,67.361c1.487,0,2.327,1.067,2.327,2.734c0,0.204-0.012,0.396-0.036,0.54h-3.934
		c0.072,1.259,0.828,2.051,1.943,2.051c0.551,0,1.019-0.18,1.451-0.456l0.348,0.647c-0.504,0.324-1.127,0.6-1.919,0.6
		c-1.559,0-2.794-1.139-2.794-3.046S31.759,67.361,33.09,67.361z M34.553,69.988c0-1.188-0.528-1.848-1.439-1.848
		c-0.816,0-1.559,0.672-1.679,1.848H34.553z"/>
	<path fill="#FD5C3F" d="M39.234,67.361c0.768,0,1.307,0.324,1.703,0.695l-0.492,0.636c-0.348-0.3-0.707-0.516-1.175-0.516
		c-1.056,0-1.823,0.911-1.823,2.255c0,1.331,0.731,2.23,1.799,2.23c0.552,0,1.02-0.275,1.367-0.588l0.444,0.648
		c-0.528,0.468-1.2,0.755-1.896,0.755c-1.547,0-2.734-1.115-2.734-3.046C36.427,68.477,37.735,67.361,39.234,67.361z"/>
	<path fill="#FD5C3F" d="M42.499,68.309h-0.863v-0.743l0.911-0.061l0.12-1.631h0.827v1.631h1.571v0.804h-1.571v3.238
		c0,0.72,0.229,1.128,0.899,1.128c0.204,0,0.468-0.084,0.66-0.156l0.191,0.743c-0.323,0.108-0.719,0.216-1.079,0.216
		c-1.247,0-1.667-0.791-1.667-1.942V68.309z"/>
	<path fill="#FD5C3F" d="M46.208,65.67c0-0.384,0.3-0.636,0.684-0.636s0.684,0.252,0.684,0.636c0,0.372-0.3,0.636-0.684,0.636
		S46.208,66.042,46.208,65.67z M46.387,67.505h0.983v5.829h-0.983V67.505z"/>
	<path fill="#FD5C3F" d="M51.605,67.361c1.428,0,2.698,1.115,2.698,3.07c0,1.931-1.271,3.046-2.698,3.046
		c-1.427,0-2.699-1.115-2.699-3.046C48.907,68.477,50.179,67.361,51.605,67.361z M51.605,72.662c1.008,0,1.68-0.899,1.68-2.23
		c0-1.344-0.672-2.255-1.68-2.255c-0.995,0-1.679,0.911-1.679,2.255C49.926,71.763,50.61,72.662,51.605,72.662z"/>
	<path fill="#FD5C3F" d="M55.843,67.505h0.815l0.084,0.84h0.036c0.552-0.552,1.151-0.983,1.955-0.983
		c1.224,0,1.774,0.791,1.774,2.278v3.694h-0.983v-3.563c0-1.091-0.335-1.559-1.103-1.559c-0.601,0-1.008,0.312-1.596,0.899v4.222
		h-0.983V67.505z"/>
	<path fill="#FD5C3F" d="M64.891,65.467h4.534v0.839h-3.526v2.471h2.975v0.852h-2.975v2.854h3.646v0.852h-4.654V65.467z"/>
	<path fill="#FD5C3F" d="M71.095,67.505h0.815l0.084,1.056h0.036c0.396-0.731,0.995-1.199,1.655-1.199
		c0.252,0,0.432,0.036,0.623,0.12l-0.191,0.863c-0.192-0.06-0.324-0.096-0.563-0.096c-0.492,0-1.08,0.359-1.476,1.343v3.742h-0.983
		V67.505z"/>
	<path fill="#FD5C3F" d="M75.259,67.505h0.815l0.084,1.056h0.036c0.396-0.731,0.995-1.199,1.655-1.199
		c0.252,0,0.432,0.036,0.623,0.12l-0.191,0.863c-0.192-0.06-0.324-0.096-0.563-0.096c-0.492,0-1.08,0.359-1.476,1.343v3.742h-0.983
		V67.505z"/>
	<path fill="#FD5C3F" d="M81.569,67.361c1.428,0,2.699,1.115,2.699,3.07c0,1.931-1.271,3.046-2.699,3.046
		c-1.427,0-2.698-1.115-2.698-3.046C78.871,68.477,80.143,67.361,81.569,67.361z M81.569,72.662c1.008,0,1.68-0.899,1.68-2.23
		c0-1.344-0.672-2.255-1.68-2.255c-0.995,0-1.679,0.911-1.679,2.255C79.891,71.763,80.574,72.662,81.569,72.662z"/>
	<path fill="#FD5C3F" d="M85.807,67.505h0.815l0.084,1.056h0.036c0.396-0.731,0.995-1.199,1.655-1.199
		c0.252,0,0.432,0.036,0.623,0.12l-0.191,0.863c-0.192-0.06-0.324-0.096-0.563-0.096c-0.492,0-1.08,0.359-1.476,1.343v3.742h-0.983
		V67.505z"/>
	<path fill="#FD5C3F" d="M93.15,71.967c0.384,0,0.707,0.312,0.707,0.768c0,0.432-0.323,0.743-0.707,0.743
		c-0.396,0-0.72-0.312-0.72-0.743C92.431,72.278,92.755,71.967,93.15,71.967z M92.671,66.426l-0.024-1.127h0.995l-0.023,1.127
		l-0.132,4.533h-0.684L92.671,66.426z"/>
</g>
</svg>
